<?xml version="1.0" encoding="UTF-8"?>
<svg xmlns="http://www.w3.org/2000/svg" viewBox="-2 -3 141 142" width="564" height="568" role="img" aria-label="Camera, 125 por 125 mm: korry MAPA, korry IVA com capa, MODO CAM, FOTO e ESCONDER"><style>.lg{font-family:"B612","Arial Narrow",Arial,sans-serif;font-weight:700}.lcdt{font-family:"B612 Mono","Courier New",monospace;font-weight:700}.dimline{stroke:#6d7780;stroke-width:.3;fill:none}.dimtext{fill:#6d7780;font-family:"B612 Mono","Courier New",monospace;font-size:3.4px}</style><defs><pattern id="zebra" width="6" height="6" patternUnits="userSpaceOnUse" patternTransform="rotate(45)"><rect width="6" height="6" fill="#1b1d1f"/><rect width="3" height="6" fill="#e7b416"/></pattern><radialGradient id="knob" cx="40%" cy="35%" r="70%"><stop offset="0" stop-color="#4a5056"/><stop offset="1" stop-color="#15181b"/></radialGradient><radialGradient id="nut" cx="40%" cy="35%" r="75%"><stop offset="0" stop-color="#c9ced3"/><stop offset="1" stop-color="#6c7379"/></radialGradient></defs><rect x="0" y="0" width="125" height="125" rx="2.5" fill="#30353a" stroke="#15181b" stroke-width=".8"/><circle cx="6" cy="6" r="2.6" fill="url(#nut)" stroke="#1b1f23" stroke-width=".4"/><line x1="4.3" y1="7.7" x2="7.7" y2="4.3" stroke="#2a2e32" stroke-width=".7"/><circle cx="119" cy="6" r="2.6" fill="url(#nut)" stroke="#1b1f23" stroke-width=".4"/><line x1="117.3" y1="7.7" x2="120.7" y2="4.3" stroke="#2a2e32" stroke-width=".7"/><circle cx="6" cy="119" r="2.6" fill="url(#nut)" stroke="#1b1f23" stroke-width=".4"/><line x1="4.3" y1="120.7" x2="7.7" y2="117.3" stroke="#2a2e32" stroke-width=".7"/><circle cx="119" cy="119" r="2.6" fill="url(#nut)" stroke="#1b1f23" stroke-width=".4"/><line x1="117.3" y1="120.7" x2="120.7" y2="117.3" stroke="#2a2e32" stroke-width=".7"/><text class="lg" x="62.5" y="10.5" font-size="4" text-anchor="middle" fill="#eef0ea" letter-spacing=".5">CAMERA</text><rect x="10" y="17" width="105" height="45" rx="1.2" fill="none" stroke="#eef0ea" stroke-width=".35"/><rect x="55.96" y="15" width="13.08" height="4" fill="#30353a"/><text class="lg" x="62.5" y="18" font-size="2.8" text-anchor="middle" fill="#eef0ea" letter-spacing=".3">VISTA</text><rect x="14" y="26" width="22.5" height="22.5" rx="1.3" fill="#0a0c0d"/><rect x="14.9" y="26.9" width="20.7" height="20.7" rx=".8" fill="#15181b" stroke="#3a4046" stroke-width=".25"/><text class="lg" x="25.25" y="38.366" font-size="3.1" text-anchor="middle" fill="#555c63">MAPA</text><rect x="45" y="26" width="22.5" height="22.5" rx="1.3" fill="#0a0c0d"/><rect x="45.9" y="26.9" width="20.7" height="20.7" rx=".8" fill="#15181b" stroke="#3a4046" stroke-width=".25"/><text class="lg" x="56.25" y="38.366" font-size="3.1" text-anchor="middle" fill="#555c63">IVA</text><rect x="42.5" y="23.5" width="27.5" height="28.5" rx="2" fill="#e5484d" opacity=".2"/><rect x="42.5" y="23.5" width="27.5" height="28.5" rx="2" fill="none" stroke="#e5484d" stroke-width=".6"/><rect x="41.5" y="21.1" width="29.5" height="3" rx="1" fill="#24282c" stroke="#5b6168" stroke-width=".3"/><rect x="51.25" y="50.8" width="10" height="2.6" rx="1" fill="#e5484d" opacity=".55"/><circle cx="94" cy="35" r="7" fill="url(#nut)" stroke="#2a2e32" stroke-width=".3"/><circle cx="94" cy="35" r="4.8" fill="url(#knob)" stroke="#9aa1a8" stroke-width=".3"/><text class="lg" x="94" y="46" font-size="2.7" text-anchor="middle" fill="#eef0ea">MODO CAM</text><text class="lg" x="94" y="52" font-size="1.8" text-anchor="middle" fill="#b9bfc5">AUTO, LIVRE, ORBITAL...</text><rect x="10" y="68" width="105" height="51" rx="1.2" fill="none" stroke="#eef0ea" stroke-width=".35"/><rect x="54.952" y="66" width="15.095999999999998" height="4" fill="#30353a"/><text class="lg" x="62.5" y="69" font-size="2.8" text-anchor="middle" fill="#eef0ea" letter-spacing=".3">IMAGEM</text><circle cx="40" cy="88" r="7" fill="url(#nut)" stroke="#2a2e32" stroke-width=".3"/><circle cx="40" cy="88" r="4.8" fill="url(#knob)" stroke="#9aa1a8" stroke-width=".3"/><text class="lg" x="40" y="99" font-size="2.7" text-anchor="middle" fill="#eef0ea">FOTO</text><circle cx="85" cy="88" r="7" fill="url(#nut)" stroke="#2a2e32" stroke-width=".3"/><circle cx="85" cy="88" r="4.8" fill="url(#knob)" stroke="#9aa1a8" stroke-width=".3"/><text class="lg" x="85" y="99" font-size="2.7" text-anchor="middle" fill="#eef0ea">ESCONDER</text><text class="lg" x="85" y="108" font-size="1.8" text-anchor="middle" fill="#b9bfc5">A INTERFACE DO JOGO</text><circle cx="6" cy="37.25" r="2.6" fill="url(#nut)" stroke="#1b1f23" stroke-width=".4"/><line x1="4.3" y1="38.95" x2="7.7" y2="35.55" stroke="#2a2e32" stroke-width=".7"/><circle cx="75" cy="37.25" r="2.6" fill="url(#nut)" stroke="#1b1f23" stroke-width=".4"/><line x1="73.3" y1="38.95" x2="76.7" y2="35.55" stroke="#2a2e32" stroke-width=".7"/><line class="dimline" x1="0" y1="131" x2="125" y2="131"/><line class="dimline" x1="0" y1="129" x2="0" y2="133"/><line class="dimline" x1="125" y1="129" x2="125" y2="133"/><text class="dimtext" x="62.5" y="135.6" text-anchor="middle">125 mm</text><line class="dimline" x1="131" y1="0" x2="131" y2="125"/><line class="dimline" x1="129" y1="0" x2="133" y2="0"/><line class="dimline" x1="129" y1="125" x2="133" y2="125"/><text class="dimtext" transform="translate(135.4 62.5) rotate(90)" text-anchor="middle">125 mm</text></svg>
